<?xml version="1.0" encoding="UTF-8" standalone="no"?>
<svg
   xmlns:dc="http://purl.org/dc/elements/1.1/"
   xmlns:cc="http://creativecommons.org/ns#"
   xmlns:rdf="http://www.w3.org/1999/02/22-rdf-syntax-ns#"
   xmlns:svg="http://www.w3.org/2000/svg"
   xmlns="http://www.w3.org/2000/svg"
   viewBox="0 0 37.795334 37.795334"
   height="37.795334"
   width="37.795334"
   xml:space="preserve"
   id="svg2"
   version="1.1"><metadata
     id="metadata8"><rdf:RDF><cc:Work
         rdf:about=""><dc:format>image/svg+xml</dc:format><dc:type
           rdf:resource="http://purl.org/dc/dcmitype/StillImage" /></cc:Work></rdf:RDF></metadata><defs
     id="defs6"><clipPath
       id="clipPath18"
       clipPathUnits="userSpaceOnUse"><path
         id="path16"
         d="M 10.001,20.783 C 6.688,20.737 3.795,17.577 3.928,14.166 v 0 C 3.883,11.396 5.717,8.74 8.234,7.893 v 0 c 2.385,-0.824 5.323,-0.206 6.891,1.9 v 0 c 1.149,1.488 1.413,3.458 1.303,5.312 v 0 c -2.032,0.022 -4.085,0.022 -6.118,0 v 0 -2.266 c 1.215,-0.046 2.452,-0.024 3.667,-0.046 v 0 c -0.31,-1.099 -1.016,-2.107 -2.076,-2.519 v 0 C 9.847,9.336 7.218,10.571 6.556,12.793 v 0 c -0.773,2.152 0.508,4.738 2.606,5.356 v 0 c 1.303,0.481 2.672,-0.068 3.776,-0.755 v 0 c 0.575,0.549 1.105,1.145 1.613,1.74 v 0 c -1.118,1.013 -2.559,1.672 -4.064,1.672 v 0 c -0.161,0 -0.323,-0.008 -0.486,-0.023" /></clipPath><clipPath
       id="clipPath28"
       clipPathUnits="userSpaceOnUse"><path
         id="path26"
         d="m 20.619,15.187 c -0.637,0 -1.253,0 -1.89,-0.025 v 0 -1.978 c 0.637,0 1.253,0 1.89,-0.023 v 0 c 0,-0.676 0,-1.327 0.023,-2.003 v 0 h 1.868 c 0,0.676 0,1.327 0.022,2.003 v 0 h 1.891 v 1.977 c -0.638,0 -1.252,0 -1.891,0.024 v 0 c 0,0.675 0,1.327 -0.022,2.002 v 0 c -0.615,0.024 -1.23,0.024 -1.868,0.024 v 0 c 0,-0.676 -0.023,-1.326 -0.023,-2.001" /></clipPath></defs><g
     transform="matrix(1.3333333,0,0,-1.3333333,0,37.795333)"
     id="g10"><g
       id="g12"><g
         clip-path="url(#clipPath18)"
         id="g14"><path
           id="path20"
           style="fill:#ffffff;fill-opacity:1;fill-rule:nonzero;stroke:none"
           d="M -2.106,26.835 H 22.481 V 1.511 H -2.106 Z" /></g></g><g
       id="g22"><g
         clip-path="url(#clipPath28)"
         id="g24"><path
           id="path30"
           style="fill:#ffffff;fill-opacity:1;fill-rule:nonzero;stroke:none"
           d="M 12.699,23.217 H 30.452 V 5.129 H 12.699 Z" /></g></g></g></svg>