<?xml version="1.0" encoding="UTF-8" standalone="no"?>
<svg
   xmlns:dc="http://purl.org/dc/elements/1.1/"
   xmlns:cc="http://creativecommons.org/ns#"
   xmlns:rdf="http://www.w3.org/1999/02/22-rdf-syntax-ns#"
   xmlns:svg="http://www.w3.org/2000/svg"
   xmlns="http://www.w3.org/2000/svg"
   viewBox="0 0 37.795334 37.795334"
   height="37.795334"
   width="37.795334"
   xml:space="preserve"
   id="svg2"
   version="1.1"><metadata
     id="metadata8"><rdf:RDF><cc:Work
         rdf:about=""><dc:format>image/svg+xml</dc:format><dc:type
           rdf:resource="http://purl.org/dc/dcmitype/StillImage" /></cc:Work></rdf:RDF></metadata><defs
     id="defs6"><clipPath
       id="clipPath18"
       clipPathUnits="userSpaceOnUse"><path
         id="path16"
         d="M 0,28.346 H 28.346 V 0 H 0 Z" /></clipPath></defs><g
     transform="matrix(1.3333333,0,0,-1.3333333,0,37.795333)"
     id="g10"><g
       id="g12"><g
         clip-path="url(#clipPath18)"
         id="g14"><g
           transform="translate(24.1718,26.3443)"
           id="g20"><path
             id="path22"
             style="fill:#ffffff;fill-opacity:1;fill-rule:nonzero;stroke:none"
             d="m 0,0 -0.208,-0.33 c -0.196,-0.312 -0.372,-0.577 -0.617,-0.946 -0.328,-0.49 -0.938,-1.457 -1.669,-2.702 -0.202,-0.343 -0.451,-0.761 -0.714,-1.203 -0.493,-0.831 -1.053,-1.772 -1.487,-2.522 -0.182,-0.318 -0.368,-0.641 -0.555,-0.967 -0.485,-0.844 -0.987,-1.717 -1.467,-2.561 -0.497,-0.874 -0.985,-1.731 -1.471,-2.59 v -0.86 c 0,-1.194 0.025,-2.492 0.07,-3.654 0.021,-0.528 0.043,-1.47 0.065,-2.466 0.028,-1.187 0.056,-2.415 0.086,-3.034 l 0.009,-0.187 0.001,-0.022 -0.202,0.057 c -0.078,0.022 -0.158,0.043 -0.239,0.062 -0.247,0.052 -0.51,0.094 -0.768,0.118 -0.158,0.013 -0.318,0.02 -0.481,0.02 h -0.002 -0.002 c -0.162,0 -0.322,-0.007 -0.48,-0.02 -0.258,-0.024 -0.522,-0.066 -0.768,-0.118 -0.081,-0.019 -0.161,-0.04 -0.24,-0.062 l -0.201,-0.057 10e-4,0.022 0.009,0.187 c 0.03,0.619 0.058,1.847 0.085,3.034 0.023,0.996 0.045,1.938 0.066,2.466 0.045,1.162 0.069,2.46 0.069,3.654 v 0.86 c -0.486,0.859 -0.973,1.716 -1.471,2.59 -0.48,0.844 -0.981,1.717 -1.467,2.561 -0.187,0.326 -0.372,0.649 -0.555,0.967 -0.434,0.75 -0.993,1.691 -1.487,2.522 -0.263,0.442 -0.511,0.86 -0.713,1.203 -0.732,1.245 -1.342,2.212 -1.67,2.702 -0.245,0.369 -0.42,0.634 -0.616,0.946 l -0.209,0.33 -0.001,0.002 0.378,-0.108 c 0.484,-0.139 0.977,-0.206 1.506,-0.206 0.528,0 1.036,0.068 1.509,0.202 l 0.114,0.032 0.058,-0.104 c 0.936,-1.689 3.449,-5.82 4.951,-8.288 0.518,-0.851 0.928,-1.525 1.132,-1.866 10e-4,10e-4 0.002,0.002 0.002,0.003 10e-4,-10e-4 0.002,-0.002 0.002,-0.003 0.205,0.341 0.615,1.015 1.132,1.866 1.502,2.468 4.016,6.599 4.952,8.288 l 0.057,0.104 0.115,-0.032 c 0.473,-0.134 0.98,-0.202 1.508,-0.202 0.53,0 1.023,0.067 1.506,0.206 l 0.378,0.108 z" /></g></g></g></g></svg>