<svg data-name="Layer 2" xmlns="http://www.w3.org/2000/svg" viewBox="0 0 24 24"><path d="M18 6.75a2.39 2.39 0 0 1-1.84-.9 1.35 1.35 0 0 0-2.25 0 2.32 2.32 0 0 1-3.67 0 1.44 1.44 0 0 0-1.12-.6 1.44 1.44 0 0 0-1.12.6 2.39 2.39 0 0 1-1.83.9 2.39 2.39 0 0 1-1.83-.9 1.44 1.44 0 0 0-1.12-.6v-1a2.39 2.39 0 0 1 1.83.9 1.44 1.44 0 0 0 1.12.6 1.44 1.44 0 0 0 1.12-.6 2.32 2.32 0 0 1 3.67 0 1.35 1.35 0 0 0 2.24 0 2.32 2.32 0 0 1 3.67 0 1.35 1.35 0 0 0 2.25 0 2.4 2.4 0 0 1 1.88-.9v1a1.44 1.44 0 0 0-1.13.6 2.4 2.4 0 0 1-1.87.9zm-6.19 7.44h-.52V15h-1v-.81H8v-1l2-3.9h1l-2 3.9h1.19v-1.05h1v1.06h.52zm4.03-.84a1.6 1.6 0 0 1-.5 1.24 1.89 1.89 0 0 1-2.46 0 1.59 1.59 0 0 1-.5-1.24V11a1.59 1.59 0 0 1 .5-1.24 1.89 1.89 0 0 1 2.46 0 1.6 1.6 0 0 1 .5 1.24zm-1 0V11a.82.82 0 0 0-.19-.56.63.63 0 0 0-.5-.21.65.65 0 0 0-.5.21.81.81 0 0 0-.19.56v2.38a.8.8 0 0 0 .19.56.66.66 0 0 0 .5.21.64.64 0 0 0 .5-.21.81.81 0 0 0 .15-.6z"/><path d="M19.36 20H4.64L2.01 3.15l1.98-.3L6.36 18h11.28l2.37-15.15 1.98.3L19.36 20z"/></svg>